<svg width="992" height="203" viewBox="0 0 992 203" fill="none" xmlns="http://www.w3.org/2000/svg">
<path d="M81.8267 98.658C136.696 73.0605 189.874 70.951 200.601 93.946C211.328 116.941 175.544 156.333 120.674 181.93C65.8047 207.528 12.6274 209.637 1.8999 186.642C-8.82725 163.647 26.9572 124.255 81.8267 98.658ZM186.488 93.0994C178.561 76.1093 133.358 80.4265 85.5239 102.742C37.6897 125.057 5.33822 156.92 13.2642 173.911C21.1904 190.901 66.3935 186.585 114.228 164.269C162.062 141.954 194.414 110.09 186.488 93.0994Z" fill="url(#paint0_linear_171_1792)"/>
<path d="M97.7451 47.5076C136.867 47.5076 168.583 78.6526 168.583 117.072C168.583 117.506 168.576 117.938 168.568 118.37C152.393 133.595 131.313 147.766 106.836 158.928C90.605 166.33 74.3542 171.736 58.8027 175.19C39.5882 162.749 26.9082 141.365 26.9082 117.072C26.9083 78.6527 58.623 47.5077 97.7451 47.5076Z" fill="url(#paint1_linear_171_1792)"/>
<path d="M125.317 44.8408C125.317 44.8408 147.468 40.654 155.449 32.2318C163.431 23.8097 168.297 0.461125 168.297 0.461125C168.297 0.461125 173.076 24.0029 181.035 31.5449C188.994 39.0868 208.018 44.0755 208.018 44.0755C208.018 44.0755 188.346 48.1761 180.364 56.5983C172.383 65.0204 168.162 83.7784 168.162 83.7784C168.162 83.7784 164.349 64.7839 156.39 57.242C148.432 49.7 125.317 44.8408 125.317 44.8408Z" fill="url(#paint2_linear_171_1792)"/>
<g filter="url(#filter0_d_171_1792)">
<path d="M254.204 175.4C244.87 175.4 237.077 173.58 230.824 169.94C224.664 166.207 220.324 160.933 217.804 154.12C215.377 147.213 215.19 139.093 217.244 129.76C220.417 114.827 226.577 103.207 235.724 94.9C244.87 86.5933 257.61 82.44 273.944 82.44C279.357 82.44 284.117 82.86 288.224 83.7C292.424 84.4467 296.297 85.52 299.844 86.92L296.344 103.44C289.064 100.173 280.897 98.54 271.844 98.54C261.577 98.54 253.644 101.107 248.044 106.24C242.537 111.373 238.664 119.213 236.424 129.76C234.277 139.653 234.79 147.073 237.964 152.02C241.137 156.967 248.23 159.44 259.244 159.44C263.63 159.44 268.017 159.067 272.404 158.32C276.884 157.48 281.27 156.267 285.564 154.68L282.064 171.34C277.957 172.553 273.617 173.533 269.044 174.28C264.564 175.027 259.617 175.4 254.204 175.4ZM329.749 175.4C315.936 175.4 305.996 171.62 299.929 164.06C293.862 156.407 292.462 144.833 295.729 129.34C299.276 112.82 305.296 100.873 313.789 93.5C322.376 86.1267 334.322 82.44 349.629 82.44C363.816 82.44 373.849 86.1267 379.729 93.5C385.702 100.873 386.916 112.82 383.369 129.34C380.102 144.833 374.176 156.407 365.589 164.06C357.002 171.62 345.056 175.4 329.749 175.4ZM333.249 159.3C341.742 159.3 348.462 156.873 353.409 152.02C358.356 147.073 361.949 139.513 364.189 129.34C365.869 121.593 366.429 115.48 365.869 111C365.402 106.52 363.582 103.347 360.409 101.48C357.236 99.52 352.476 98.54 346.129 98.54C337.636 98.54 330.869 100.873 325.829 105.54C320.882 110.113 317.242 118.047 314.909 129.34C312.762 139.887 312.949 147.54 315.469 152.3C318.082 156.967 324.009 159.3 333.249 159.3ZM409.156 175.4C403.37 175.4 398.05 174.98 393.196 174.14C388.436 173.3 384.423 172.087 381.156 170.5L384.656 153.84C388.39 155.52 392.543 156.873 397.116 157.9C401.69 158.927 406.263 159.44 410.836 159.44C417.37 159.44 422.27 158.833 425.536 157.62C428.896 156.407 431.043 153.653 431.976 149.36C432.536 146.653 432.303 144.507 431.276 142.92C430.343 141.333 428.383 139.933 425.396 138.72C422.503 137.413 418.303 135.967 412.796 134.38C403.93 131.767 397.956 128.5 394.876 124.58C391.89 120.66 391.143 115.247 392.636 108.34C394.41 100.033 398.516 93.64 404.956 89.16C411.49 84.68 421.103 82.44 433.796 82.44C439.21 82.44 444.156 82.8133 448.636 83.56C453.21 84.3067 456.803 85.1933 459.416 86.22L455.776 102.88C448.87 99.9867 441.216 98.54 432.816 98.54C426.936 98.54 422.176 99.1933 418.536 100.5C414.896 101.713 412.656 104.327 411.816 108.34C411.35 110.673 411.536 112.54 412.376 113.94C413.31 115.34 415.13 116.6 417.836 117.72C420.636 118.84 424.51 120.1 429.456 121.5C436.456 123.46 441.636 125.793 444.996 128.5C448.45 131.207 450.596 134.287 451.436 137.74C452.276 141.193 452.23 145.067 451.296 149.36C450.176 154.587 448.123 159.16 445.136 163.08C442.243 167 437.903 170.033 432.116 172.18C426.423 174.327 418.77 175.4 409.156 175.4ZM453.769 174L472.809 83.84H491.149L506.129 138.02L544.069 83.84H563.669L544.629 174H525.729L538.189 115.34L507.949 158.46H497.029L485.129 115.34L472.669 174H453.769ZM595.683 175.4C581.87 175.4 571.93 171.62 565.863 164.06C559.797 156.407 558.397 144.833 561.663 129.34C565.21 112.82 571.23 100.873 579.723 93.5C588.31 86.1267 600.257 82.44 615.563 82.44C629.75 82.44 639.783 86.1267 645.663 93.5C651.637 100.873 652.85 112.82 649.303 129.34C646.037 144.833 640.11 156.407 631.523 164.06C622.937 171.62 610.99 175.4 595.683 175.4ZM599.183 159.3C607.677 159.3 614.397 156.873 619.343 152.02C624.29 147.073 627.883 139.513 630.123 129.34C631.803 121.593 632.363 115.48 631.803 111C631.337 106.52 629.517 103.347 626.343 101.48C623.17 99.52 618.41 98.54 612.063 98.54C603.57 98.54 596.803 100.873 591.763 105.54C586.817 110.113 583.177 118.047 580.843 129.34C578.697 139.887 578.883 147.54 581.403 152.3C584.017 156.967 589.943 159.3 599.183 159.3ZM668.264 174L684.224 98.4H656.504L659.584 83.84H733.784L730.704 98.4H703.124L687.164 174H668.264ZM719.567 174L738.607 83.84H781.867C791.387 83.84 798.2 86.5933 802.307 92.1C806.507 97.5133 807.58 104.84 805.527 114.08C804.314 120.147 801.7 125.42 797.687 129.9C793.767 134.38 788.634 137.507 782.287 139.28C783.5 140.493 784.387 141.8 784.947 143.2C785.6 144.6 786.16 146.467 786.627 148.8L792.227 174H772.627L767.027 149.78C766.56 147.727 765.86 146.28 764.927 145.44C763.994 144.6 762.22 144.18 759.607 144.18H744.767L738.467 174H719.567ZM748.127 128.5H767.587C772.534 128.5 776.64 127.427 779.907 125.28C783.174 123.04 785.32 119.307 786.347 114.08C787.467 109.04 787.234 105.353 785.647 103.02C784.154 100.687 780.56 99.52 774.867 99.52H754.287L748.127 128.5ZM800.51 174L819.55 83.84H838.45L819.41 174H800.51ZM824.236 174L866.376 128.78L844.116 83.84H866.376L880.936 113.94L908.096 83.84H930.356L889.056 128.78L912.156 174H889.616L874.496 143.9L846.776 174H824.236Z" fill="url(#paint3_linear_171_1792)"/>
</g>
<defs>
<filter id="filter0_d_171_1792" x="210.164" y="82.44" width="724.192" height="100.96" filterUnits="userSpaceOnUse" color-interpolation-filters="sRGB">
<feFlood flood-opacity="0" result="BackgroundImageFix"/>
<feColorMatrix in="SourceAlpha" type="matrix" values="0 0 0 0 0 0 0 0 0 0 0 0 0 0 0 0 0 0 127 0" result="hardAlpha"/>
<feOffset dy="4"/>
<feGaussianBlur stdDeviation="2"/>
<feComposite in2="hardAlpha" operator="out"/>
<feColorMatrix type="matrix" values="0 0 0 0 0 0 0 0 0 0 0 0 0 0 0 0 0 0 0.25 0"/>
<feBlend mode="normal" in2="BackgroundImageFix" result="effect1_dropShadow_171_1792"/>
<feBlend mode="normal" in="SourceGraphic" in2="effect1_dropShadow_171_1792" result="shape"/>
</filter>
<linearGradient id="paint0_linear_171_1792" x1="120.498" y1="79.4249" x2="77.7864" y2="228.911" gradientUnits="userSpaceOnUse">
<stop stop-color="#DA22FF"/>
<stop offset="0.459755" stop-color="#9400FB"/>
<stop offset="0.903699" stop-color="#4E1562"/>
</linearGradient>
<linearGradient id="paint1_linear_171_1792" x1="111.212" y1="48.9779" x2="52.2117" y2="189.968" gradientUnits="userSpaceOnUse">
<stop stop-color="#DA22FF"/>
<stop offset="0.459755" stop-color="#9400FB"/>
<stop offset="0.903699" stop-color="#4E1562"/>
</linearGradient>
<linearGradient id="paint2_linear_171_1792" x1="151.1" y1="18.6296" x2="178.008" y2="83.7727" gradientUnits="userSpaceOnUse">
<stop stop-color="#DA22FF"/>
<stop offset="0.459755" stop-color="#9400FB"/>
<stop offset="0.903699" stop-color="#4E1562"/>
</linearGradient>
<linearGradient id="paint3_linear_171_1792" x1="-144.5" y1="99" x2="1058" y2="-128.5" gradientUnits="userSpaceOnUse">
<stop stop-color="#5A127C"/>
<stop offset="1" stop-color="#DA22FF"/>
</linearGradient>
</defs>
</svg>
