<svg width="1008" height="214" viewBox="0 0 1008 214" fill="none" xmlns="http://www.w3.org/2000/svg">
<g filter="url(#filter0_d_299_1867)">
<path d="M270.204 185.4C260.87 185.4 253.077 183.58 246.824 179.94C240.664 176.207 236.324 170.933 233.804 164.12C231.377 157.213 231.19 149.093 233.244 139.76C236.417 124.827 242.577 113.207 251.724 104.9C260.87 96.5933 273.61 92.44 289.944 92.44C295.357 92.44 300.117 92.86 304.224 93.7C308.424 94.4467 312.297 95.52 315.844 96.92L312.344 113.44C305.064 110.173 296.897 108.54 287.844 108.54C277.577 108.54 269.644 111.107 264.044 116.24C258.537 121.373 254.664 129.213 252.424 139.76C250.277 149.653 250.79 157.073 253.964 162.02C257.137 166.967 264.23 169.44 275.244 169.44C279.63 169.44 284.017 169.067 288.404 168.32C292.884 167.48 297.27 166.267 301.564 164.68L298.064 181.34C293.957 182.553 289.617 183.533 285.044 184.28C280.564 185.027 275.617 185.4 270.204 185.4ZM345.749 185.4C331.936 185.4 321.996 181.62 315.929 174.06C309.862 166.407 308.462 154.833 311.729 139.34C315.276 122.82 321.296 110.873 329.789 103.5C338.376 96.1267 350.322 92.44 365.629 92.44C379.816 92.44 389.849 96.1267 395.729 103.5C401.702 110.873 402.916 122.82 399.369 139.34C396.102 154.833 390.176 166.407 381.589 174.06C373.002 181.62 361.056 185.4 345.749 185.4ZM349.249 169.3C357.742 169.3 364.462 166.873 369.409 162.02C374.356 157.073 377.949 149.513 380.189 139.34C381.869 131.593 382.429 125.48 381.869 121C381.402 116.52 379.582 113.347 376.409 111.48C373.236 109.52 368.476 108.54 362.129 108.54C353.636 108.54 346.869 110.873 341.829 115.54C336.882 120.113 333.242 128.047 330.909 139.34C328.762 149.887 328.949 157.54 331.469 162.3C334.082 166.967 340.009 169.3 349.249 169.3ZM425.156 185.4C419.37 185.4 414.05 184.98 409.196 184.14C404.436 183.3 400.423 182.087 397.156 180.5L400.656 163.84C404.39 165.52 408.543 166.873 413.116 167.9C417.69 168.927 422.263 169.44 426.836 169.44C433.37 169.44 438.27 168.833 441.536 167.62C444.896 166.407 447.043 163.653 447.976 159.36C448.536 156.653 448.303 154.507 447.276 152.92C446.343 151.333 444.383 149.933 441.396 148.72C438.503 147.413 434.303 145.967 428.796 144.38C419.93 141.767 413.956 138.5 410.876 134.58C407.89 130.66 407.143 125.247 408.636 118.34C410.41 110.033 414.516 103.64 420.956 99.16C427.49 94.68 437.103 92.44 449.796 92.44C455.21 92.44 460.156 92.8133 464.636 93.56C469.21 94.3067 472.803 95.1933 475.416 96.22L471.776 112.88C464.87 109.987 457.216 108.54 448.816 108.54C442.936 108.54 438.176 109.193 434.536 110.5C430.896 111.713 428.656 114.327 427.816 118.34C427.35 120.673 427.536 122.54 428.376 123.94C429.31 125.34 431.13 126.6 433.836 127.72C436.636 128.84 440.51 130.1 445.456 131.5C452.456 133.46 457.636 135.793 460.996 138.5C464.45 141.207 466.596 144.287 467.436 147.74C468.276 151.193 468.23 155.067 467.296 159.36C466.176 164.587 464.123 169.16 461.136 173.08C458.243 177 453.903 180.033 448.116 182.18C442.423 184.327 434.77 185.4 425.156 185.4ZM469.769 184L488.809 93.84H507.149L522.129 148.02L560.069 93.84H579.669L560.629 184H541.729L554.189 125.34L523.949 168.46H513.029L501.129 125.34L488.669 184H469.769ZM611.683 185.4C597.87 185.4 587.93 181.62 581.863 174.06C575.797 166.407 574.397 154.833 577.663 139.34C581.21 122.82 587.23 110.873 595.723 103.5C604.31 96.1267 616.257 92.44 631.563 92.44C645.75 92.44 655.783 96.1267 661.663 103.5C667.637 110.873 668.85 122.82 665.303 139.34C662.037 154.833 656.11 166.407 647.523 174.06C638.937 181.62 626.99 185.4 611.683 185.4ZM615.183 169.3C623.677 169.3 630.397 166.873 635.343 162.02C640.29 157.073 643.883 149.513 646.123 139.34C647.803 131.593 648.363 125.48 647.803 121C647.337 116.52 645.517 113.347 642.343 111.48C639.17 109.52 634.41 108.54 628.063 108.54C619.57 108.54 612.803 110.873 607.763 115.54C602.817 120.113 599.177 128.047 596.843 139.34C594.697 149.887 594.883 157.54 597.403 162.3C600.017 166.967 605.943 169.3 615.183 169.3ZM684.264 184L700.224 108.4H672.504L675.584 93.84H749.784L746.704 108.4H719.124L703.164 184H684.264ZM735.567 184L754.607 93.84H797.867C807.387 93.84 814.2 96.5933 818.307 102.1C822.507 107.513 823.58 114.84 821.527 124.08C820.314 130.147 817.7 135.42 813.687 139.9C809.767 144.38 804.634 147.507 798.287 149.28C799.5 150.493 800.387 151.8 800.947 153.2C801.6 154.6 802.16 156.467 802.627 158.8L808.227 184H788.627L783.027 159.78C782.56 157.727 781.86 156.28 780.927 155.44C779.994 154.6 778.22 154.18 775.607 154.18H760.767L754.467 184H735.567ZM764.127 138.5H783.587C788.534 138.5 792.64 137.427 795.907 135.28C799.174 133.04 801.32 129.307 802.347 124.08C803.467 119.04 803.234 115.353 801.647 113.02C800.154 110.687 796.56 109.52 790.867 109.52H770.287L764.127 138.5ZM816.51 184L835.55 93.84H854.45L835.41 184H816.51ZM840.236 184L882.376 138.78L860.116 93.84H882.376L896.936 123.94L924.096 93.84H946.356L905.056 138.78L928.156 184H905.616L890.496 153.9L862.776 184H840.236Z" fill="url(#paint0_linear_299_1867)"/>
</g>
<path d="M86.127 103.843C143.88 76.9 199.852 74.6802 211.144 98.8838C222.434 123.087 184.77 164.549 127.017 191.492C69.2632 218.435 13.2915 220.656 2 196.452C-9.29134 172.249 28.3735 130.786 86.127 103.843ZM196.289 97.9932C187.946 80.1098 140.367 84.6532 90.0186 108.142C39.6701 131.63 5.61809 165.168 13.9609 183.052C22.304 200.935 69.8829 196.392 120.231 172.903C170.58 149.415 204.631 115.877 196.289 97.9932Z" fill="url(#paint1_linear_299_1867)"/>
<path d="M102.883 50.0045C144.061 50.0046 177.442 82.7866 177.442 123.225C177.442 123.682 177.436 124.137 177.428 124.591C160.402 140.617 138.214 155.533 112.451 167.282C95.3672 175.073 78.2623 180.763 61.8936 184.398C41.6689 171.303 28.3223 148.795 28.3223 123.225C28.3223 82.7865 61.7044 50.0045 102.883 50.0045Z" fill="url(#paint2_linear_299_1867)"/>
<path d="M131.903 47.1976C131.903 47.1976 155.219 42.7907 163.619 33.9259C172.02 25.0611 177.143 0.485377 177.143 0.485377C177.143 0.485377 182.173 25.2645 190.55 33.2028C198.927 41.1411 218.951 46.392 218.951 46.392C218.951 46.392 198.245 50.7082 189.844 59.573C181.443 68.4377 177 88.1816 177 88.1816C177 88.1816 172.987 68.1888 164.61 60.2505C156.233 52.3122 131.903 47.1976 131.903 47.1976Z" fill="url(#paint3_linear_299_1867)"/>
<defs>
<filter id="filter0_d_299_1867" x="226.164" y="92.44" width="724.192" height="100.96" filterUnits="userSpaceOnUse" color-interpolation-filters="sRGB">
<feFlood flood-opacity="0" result="BackgroundImageFix"/>
<feColorMatrix in="SourceAlpha" type="matrix" values="0 0 0 0 0 0 0 0 0 0 0 0 0 0 0 0 0 0 127 0" result="hardAlpha"/>
<feOffset dy="4"/>
<feGaussianBlur stdDeviation="2"/>
<feComposite in2="hardAlpha" operator="out"/>
<feColorMatrix type="matrix" values="0 0 0 0 0 0 0 0 0 0 0 0 0 0 0 0 0 0 0.25 0"/>
<feBlend mode="normal" in2="BackgroundImageFix" result="effect1_dropShadow_299_1867"/>
<feBlend mode="normal" in="SourceGraphic" in2="effect1_dropShadow_299_1867" result="shape"/>
</filter>
<linearGradient id="paint0_linear_299_1867" x1="680" y1="-171.5" x2="187.5" y2="405" gradientUnits="userSpaceOnUse">
<stop offset="0.0116785" stop-color="#FFCF00"/>
<stop offset="0.283648" stop-color="#FF9500"/>
<stop offset="0.447626" stop-color="#FF9500"/>
<stop offset="0.836703" stop-color="#4E1562"/>
</linearGradient>
<linearGradient id="paint1_linear_299_1867" x1="131.116" y1="71.1048" x2="97.1055" y2="235.402" gradientUnits="userSpaceOnUse">
<stop stop-color="#FFCF00"/>
<stop offset="0.459755" stop-color="#EE7305"/>
<stop offset="0.5" stop-color="#EC6B05"/>
<stop offset="0.903699" stop-color="#4E1562"/>
</linearGradient>
<linearGradient id="paint2_linear_299_1867" x1="120.054" y1="38.7494" x2="71.3069" y2="199.535" gradientUnits="userSpaceOnUse">
<stop stop-color="#FFCF00"/>
<stop offset="0.459755" stop-color="#EE7305"/>
<stop offset="0.5" stop-color="#EC6B05"/>
<stop offset="0.903699" stop-color="#4E1562"/>
</linearGradient>
<linearGradient id="paint3_linear_299_1867" x1="155.61" y1="14.556" x2="192.852" y2="82.9002" gradientUnits="userSpaceOnUse">
<stop stop-color="#FFCF00"/>
<stop offset="0.459755" stop-color="#EE7305"/>
<stop offset="0.5" stop-color="#EC6B05"/>
<stop offset="0.903699" stop-color="#4E1562"/>
</linearGradient>
</defs>
</svg>